<svg xmlns="http://www.w3.org/2000/svg" width="130.5" height="109.998" viewBox="0 0 130.5 109.998">
  <g id="CdG_Logo_White" data-name="CdG Logo White" transform="translate(-1964.067 -347.151)">
    <g id="Group_2" data-name="Group 2" transform="translate(1964.067 427.785)">
      <g id="Group_1" data-name="Group 1" transform="translate(0 0)">
        <path id="Path_1" data-name="Path 1" d="M1964.067,948.3v-7.922a2.375,2.375,0,0,1,.816-1.935,3.145,3.145,0,0,1,2.081-.679h.935a3.188,3.188,0,0,1,2.086.679,2.357,2.357,0,0,1,.83,1.935V941.9a.416.416,0,0,1-.124.307.429.429,0,0,1-.317.124h-1.064a.424.424,0,0,1-.3-.124.4.4,0,0,1-.133-.307v-1.128a1.21,1.21,0,0,0-.312-.88,1.11,1.11,0,0,0-.834-.321h-.587a1.109,1.109,0,0,0-.834.321,1.211,1.211,0,0,0-.312.88v7.134a1.211,1.211,0,0,0,.312.88,1.109,1.109,0,0,0,.834.321h.587a1.119,1.119,0,0,0,.834-.316,1.206,1.206,0,0,0,.312-.885V946.6a.41.41,0,0,1,.128-.307.422.422,0,0,1,.3-.124h1.064a.44.44,0,0,1,.312.119.405.405,0,0,1,.129.312V948.3a2.357,2.357,0,0,1-.83,1.935,3.188,3.188,0,0,1-2.086.679h-.935a3.148,3.148,0,0,1-2.076-.679A2.368,2.368,0,0,1,1964.067,948.3Z" transform="translate(-1964.067 -937.768)" fill="#fff"/>
        <path id="Path_2" data-name="Path 2" d="M2046.624,950.486V938.208a.44.44,0,0,1,.119-.312.409.409,0,0,1,.313-.128h1.069a.42.42,0,0,1,.308.124.426.426,0,0,1,.125.316v5.154h2.87v-5.154a.439.439,0,0,1,.119-.311.4.4,0,0,1,.312-.128h1.073a.417.417,0,0,1,.307.124.429.429,0,0,1,.124.316v12.278a.423.423,0,0,1-.431.431h-1.073a.422.422,0,0,1-.431-.431v-5.318h-2.87v5.318a.424.424,0,0,1-.12.307.416.416,0,0,1-.313.124h-1.069a.423.423,0,0,1-.433-.431Z" transform="translate(-2035.353 -937.768)" fill="#fff"/>
        <path id="Path_3" data-name="Path 3" d="M2126.76,950.541a2.511,2.511,0,0,1,.055-.449l1.788-11.883a.446.446,0,0,1,.472-.44h2.6a.43.43,0,0,1,.473.414l1.788,11.883q.055.388.055.464,0,.388-.424.388h-1.327a.423.423,0,0,1-.469-.394l-.4-2.989h-2.3l-.42,2.988a.408.408,0,0,1-.448.4h-1.07A.332.332,0,0,1,2126.76,950.541Zm2.567-4.814h1.806l-.843-6.3h-.078Z" transform="translate(-2104.548 -937.768)" fill="#fff"/>
        <path id="Path_4" data-name="Path 4" d="M2209.314,950.486v-12.3a.389.389,0,0,1,.128-.289.42.42,0,0,1,.3-.124h1.31a.471.471,0,0,1,.5.413l1.63,5.153,1.625-5.153a.505.505,0,0,1,.505-.413h1.331a.428.428,0,0,1,.3.124.383.383,0,0,1,.133.289v12.3a.426.426,0,0,1-.119.307.413.413,0,0,1-.312.124h-1.063a.432.432,0,0,1-.312-.124.41.41,0,0,1-.128-.307v-8.335l-1.1,3.356a.578.578,0,0,1-.588.449h-.561a.587.587,0,0,1-.588-.449l-1.113-3.356v8.335a.427.427,0,0,1-.118.307.41.41,0,0,1-.311.124h-1.022a.422.422,0,0,1-.429-.431Z" transform="translate(-2175.832 -937.768)" fill="#fff"/>
        <path id="Path_5" data-name="Path 5" d="M2301.408,950.486v-12.3a.389.389,0,0,1,.128-.289.422.422,0,0,1,.3-.124h3.282a2.577,2.577,0,0,1,1.871.743,2.528,2.528,0,0,1,.761,1.889v2.7a2.528,2.528,0,0,1-.76,1.889,2.567,2.567,0,0,1-1.867.743h-1.784v4.75a.423.423,0,0,1-.12.307.416.416,0,0,1-.313.124h-1.069a.43.43,0,0,1-.3-.124A.4.4,0,0,1,2301.408,950.486Zm1.935-6.556h1.388a1,1,0,0,0,.8-.33,1.29,1.29,0,0,0,.284-.871v-1.953a1.29,1.29,0,0,0-.284-.871,1,1,0,0,0-.8-.33h-1.388Z" transform="translate(-2255.353 -937.768)" fill="#fff"/>
        <path id="Path_6" data-name="Path 6" d="M2423.936,950.486v-12.3a.388.388,0,0,1,.128-.289.421.421,0,0,1,.3-.124h3.677a2.577,2.577,0,0,1,1.871.743,2.527,2.527,0,0,1,.761,1.889v7.885a2.527,2.527,0,0,1-.761,1.889,2.577,2.577,0,0,1-1.871.743h-3.677a.428.428,0,0,1-.3-.124A.4.4,0,0,1,2423.936,950.486Zm1.935-1.375h1.782a1.009,1.009,0,0,0,.8-.326,1.285,1.285,0,0,0,.284-.876v-7.134a1.289,1.289,0,0,0-.284-.871,1,1,0,0,0-.8-.33h-1.782Z" transform="translate(-2361.153 -937.768)" fill="#fff"/>
        <path id="Path_7" data-name="Path 7" d="M2507.632,948.285V938.208a.432.432,0,0,1,.124-.312.419.419,0,0,1,.316-.128h1.064a.417.417,0,0,1,.307.124.428.428,0,0,1,.124.316v9.7a1.262,1.262,0,0,0,.293.871,1.014,1.014,0,0,0,.8.33h.587a1,1,0,0,0,.8-.326,1.3,1.3,0,0,0,.28-.876v-9.7a.433.433,0,0,1,.124-.312.42.42,0,0,1,.316-.128h1.063a.417.417,0,0,1,.307.124.428.428,0,0,1,.124.316v10.077a2.534,2.534,0,0,1-.756,1.889,2.56,2.56,0,0,1-1.866.743h-1.375a2.575,2.575,0,0,1-1.87-.743A2.525,2.525,0,0,1,2507.632,948.285Z" transform="translate(-2433.422 -937.768)" fill="#fff"/>
        <path id="Path_8" data-name="Path 8" d="M2634.528,948.3v-7.922a2.373,2.373,0,0,1,.816-1.935,3.144,3.144,0,0,1,2.081-.679h.935a3.185,3.185,0,0,1,2.085.679,2.356,2.356,0,0,1,.83,1.935V941.9a.418.418,0,0,1-.124.307.428.428,0,0,1-.316.124h-1.064a.427.427,0,0,1-.3-.124.4.4,0,0,1-.133-.307v-1.128a1.213,1.213,0,0,0-.312-.88,1.109,1.109,0,0,0-.834-.321h-.587a1.109,1.109,0,0,0-.835.321,1.21,1.21,0,0,0-.312.88v7.134a1.21,1.21,0,0,0,.312.88,1.109,1.109,0,0,0,.835.321h.55a1.051,1.051,0,0,0,.83-.326,1.272,1.272,0,0,0,.289-.876v-2.7a.4.4,0,0,1,.132-.307.438.438,0,0,1,.308-.124h1.063a.423.423,0,0,1,.431.431v5.281a.41.41,0,0,1-.128.307.423.423,0,0,1-.3.124h-.862a.423.423,0,0,1-.431-.431v-.431a1.793,1.793,0,0,1-.77.619,2.731,2.731,0,0,1-1.164.243h-.2a3.043,3.043,0,0,1-2.031-.669A2.4,2.4,0,0,1,2634.528,948.3Z" transform="translate(-2542.994 -937.768)" fill="#fff"/>
        <path id="Path_9" data-name="Path 9" d="M2717.147,948.3v-7.922a2.375,2.375,0,0,1,.816-1.935,3.145,3.145,0,0,1,2.082-.679H2721a3.15,3.15,0,0,1,2.077.679,2.37,2.37,0,0,1,.82,1.935V948.3a2.37,2.37,0,0,1-.82,1.935,3.15,3.15,0,0,1-2.077.679h-.954a3.15,3.15,0,0,1-2.077-.679A2.368,2.368,0,0,1,2717.147,948.3Zm1.935-.394a1.212,1.212,0,0,0,.312.88,1.109,1.109,0,0,0,.834.321h.587a1.118,1.118,0,0,0,.834-.316,1.206,1.206,0,0,0,.312-.885v-7.134a1.21,1.21,0,0,0-.312-.88,1.109,1.109,0,0,0-.834-.321h-.587a1.109,1.109,0,0,0-.834.321,1.212,1.212,0,0,0-.312.88Z" transform="translate(-2614.333 -937.768)" fill="#fff"/>
        <path id="Path_10" data-name="Path 10" d="M2801.047,950.5v-12.3a.437.437,0,0,1,.12-.312.407.407,0,0,1,.313-.128h1.069a.419.419,0,0,1,.308.124.427.427,0,0,1,.125.316v10.9h3.714a.422.422,0,0,1,.43.431v.963a.4.4,0,0,1-.124.289.416.416,0,0,1-.307.124h-5.217a.428.428,0,0,1-.3-.124A.384.384,0,0,1,2801.047,950.5Z" transform="translate(-2686.779 -937.768)" fill="#fff"/>
        <path id="Path_11" data-name="Path 11" d="M2875.942,950.486v-12.3a.391.391,0,0,1,.128-.289.423.423,0,0,1,.3-.124h5.144a.418.418,0,0,1,.308.124.4.4,0,0,1,.123.289v.963a.422.422,0,0,1-.429.431h-3.642v3.888h3.174a.422.422,0,0,1,.429.431v.954a.429.429,0,0,1-.429.422h-3.174v5.217a.422.422,0,0,1-.12.307.416.416,0,0,1-.313.124h-1.068a.419.419,0,0,1-.308-.124A.414.414,0,0,1,2875.942,950.486Z" transform="translate(-2751.448 -937.768)" fill="#fff"/>
      </g>
    </g>
    <g id="Group_3" data-name="Group 3" transform="translate(1987.172 452.59)">
      <path id="Path_12" data-name="Path 12" d="M2134.9,1119.865c-.683,0-.943.338-.943.709,0,1.079,2.458.618,2.458,2.185,0,.813-.559,1.261-1.561,1.261a1.684,1.684,0,0,1-1.515-.8.227.227,0,0,1-.032-.117.209.209,0,0,1,.39-.1,1.3,1.3,0,0,0,1.157.618c.715,0,1.119-.286,1.119-.858,0-1.216-2.458-.644-2.458-2.185,0-.6.436-1.112,1.385-1.112a1.627,1.627,0,0,1,1.392.67.221.221,0,0,1,.039.124.209.209,0,0,1-.377.123A1.286,1.286,0,0,0,2134.9,1119.865Z" transform="translate(-2133.303 -1119.462)" fill="#fff"/>
      <path id="Path_13" data-name="Path 13" d="M2175.4,1124.507a.2.2,0,0,1-.2-.2.2.2,0,0,1,.2-.2h.24v-3.57h-.24a.2.2,0,0,1-.2-.2.2.2,0,0,1,.2-.2h1.756a1.272,1.272,0,0,1,0,2.542h-1.073v1.43h.293a.2.2,0,0,1,.2.2.194.194,0,0,1-.2.2Zm.683-3.973v1.736h1.008a.868.868,0,0,0,0-1.736Z" transform="translate(-2169.482 -1120.04)" fill="#fff"/>
      <path id="Path_14" data-name="Path 14" d="M2217.245,1121.745c0-1.541.767-2.282,2.029-2.282s2.029.741,2.029,2.282-.767,2.276-2.029,2.276S2217.245,1123.273,2217.245,1121.745Zm.455,0c0,1.268.579,1.873,1.574,1.873s1.573-.6,1.573-1.873-.578-1.879-1.573-1.879S2217.7,1120.47,2217.7,1121.745Z" transform="translate(-2205.785 -1119.462)" fill="#fff"/>
      <path id="Path_15" data-name="Path 15" d="M2268.956,1124.507a.209.209,0,0,1-.195-.1l-1.171-1.788h-.656v1.489h.24a.2.2,0,0,1,.2.2.2.2,0,0,1-.2.2h-.923a.194.194,0,0,1-.2-.2.2.2,0,0,1,.2-.2h.24v-3.57h-.24a.194.194,0,0,1-.2-.2.2.2,0,0,1,.2-.2h1.756a1.213,1.213,0,0,1,1.242,1.242,1.2,1.2,0,0,1-1.164,1.242l.994,1.489h.3a.2.2,0,0,1,.2.2.2.2,0,0,1-.2.2Zm-2.022-3.973v1.677h1.086a.84.84,0,0,0-.02-1.677Z" transform="translate(-2247.927 -1120.04)" fill="#fff"/>
      <path id="Path_16" data-name="Path 16" d="M2311.557,1121.132a.2.2,0,0,1-.2.2.2.2,0,0,1-.2-.2v-.6h-.962v3.576h.267a.2.2,0,0,1,.2.2.2.2,0,0,1-.2.2h-.989a.194.194,0,0,1-.2-.2.2.2,0,0,1,.2-.2h.28v-3.576h-.969v.6a.2.2,0,0,1-.2.2.2.2,0,0,1-.2-.2v-.8a.2.2,0,0,1,.2-.2h2.777a.2.2,0,0,1,.2.2Z" transform="translate(-2284.475 -1120.04)" fill="#fff"/>
      <path id="Path_17" data-name="Path 17" d="M2350.722,1119.865c-.683,0-.943.338-.943.709,0,1.079,2.458.618,2.458,2.185,0,.813-.559,1.261-1.561,1.261a1.684,1.684,0,0,1-1.515-.8.227.227,0,0,1-.032-.117.206.206,0,0,1,.208-.208.208.208,0,0,1,.182.1,1.3,1.3,0,0,0,1.157.618c.715,0,1.119-.286,1.119-.858,0-1.216-2.458-.644-2.458-2.185,0-.6.436-1.112,1.385-1.112a1.627,1.627,0,0,1,1.392.67.219.219,0,0,1,.039.124.209.209,0,0,1-.377.123A1.286,1.286,0,0,0,2350.722,1119.865Z" transform="translate(-2319.663 -1119.462)" fill="#fff"/>
      <path id="Path_18" data-name="Path 18" d="M2420.177,1122.414a2.165,2.165,0,0,1-.339.858,3.7,3.7,0,0,0,.644.318.2.2,0,0,1-.071.39,2.35,2.35,0,0,1-.833-.4,1.729,1.729,0,0,1-1.209.436,1.242,1.242,0,0,1-1.392-1.229,1.412,1.412,0,0,1,.715-1.19,2.271,2.271,0,0,1-.3-1.138.909.909,0,0,1,.923-1,.819.819,0,0,1,.871.871c0,.559-.416.969-.969,1.385a5.13,5.13,0,0,0,1.294,1.307,1.85,1.85,0,0,0,.254-.611h-.221a.194.194,0,0,1-.2-.2.2.2,0,0,1,.2-.2h.923a.2.2,0,0,1,.2.2.2.2,0,0,1-.2.2Zm-2.282-.455a.972.972,0,0,0-.5.832.9.9,0,0,0,.975.852,1.367,1.367,0,0,0,.871-.319A5.243,5.243,0,0,1,2417.894,1121.959Zm.13-.579a1.552,1.552,0,0,0,.748-1.047.448.448,0,0,0-.455-.494c-.345,0-.507.273-.507.624A1.91,1.91,0,0,0,2418.024,1121.38Z" transform="translate(-2378.249 -1119.462)" fill="#fff"/>
      <path id="Path_19" data-name="Path 19" d="M2490.167,1124.325a.177.177,0,0,1-.182.182H2487.5a.2.2,0,0,1-.2-.2.2.2,0,0,1,.2-.2h.234v-3.57h-.234a.2.2,0,0,1-.2-.2.2.2,0,0,1,.2-.2h.962a.2.2,0,0,1,.2.2.2.2,0,0,1-.2.2h-.286v3.557h1.587v-.41a.2.2,0,0,1,.2-.2.2.2,0,0,1,.2.2Z" transform="translate(-2438.971 -1120.04)" fill="#fff"/>
      <path id="Path_20" data-name="Path 20" d="M2529.788,1124.331a.2.2,0,0,1-.2.176h-2.613a.2.2,0,0,1-.2-.2.2.2,0,0,1,.2-.2h.233v-3.57h-.233a.2.2,0,0,1-.2-.2.2.2,0,0,1,.2-.2h2.542a.2.2,0,0,1,.2.2v.494a.2.2,0,0,1-.2.2.2.2,0,0,1-.2-.2v-.292h-1.665v1.567h1.43a.2.2,0,1,1,0,.4h-1.43v1.6h1.736v-.293a.2.2,0,0,1,.2-.2.2.2,0,0,1,.2.2Z" transform="translate(-2473.053 -1120.04)" fill="#fff"/>
      <path id="Path_21" data-name="Path 21" d="M2568.649,1120.534v3.57h.241a.2.2,0,0,1,.2.2.2.2,0,0,1-.2.2h-.923a.2.2,0,0,1-.2-.2.2.2,0,0,1,.2-.2h.24v-3.57h-.24a.2.2,0,0,1-.2-.2.2.2,0,0,1,.2-.2h.923a.2.2,0,0,1,.2.2.2.2,0,0,1-.2.2Z" transform="translate(-2508.45 -1120.04)" fill="#fff"/>
      <path id="Path_22" data-name="Path 22" d="M2597.638,1119.865c-.682,0-.943.338-.943.709,0,1.079,2.458.618,2.458,2.185,0,.813-.56,1.261-1.561,1.261a1.685,1.685,0,0,1-1.515-.8.229.229,0,0,1-.032-.117.209.209,0,0,1,.39-.1,1.3,1.3,0,0,0,1.157.618c.715,0,1.119-.286,1.119-.858,0-1.216-2.458-.644-2.458-2.185,0-.6.436-1.112,1.385-1.112a1.626,1.626,0,0,1,1.392.67.218.218,0,0,1,.039.124.209.209,0,0,1-.377.123A1.286,1.286,0,0,0,2597.638,1119.865Z" transform="translate(-2532.869 -1119.462)" fill="#fff"/>
      <path id="Path_23" data-name="Path 23" d="M2640.815,1120.534v2.64c0,.715-.293,1.424-1.522,1.424s-1.528-.709-1.528-1.424v-2.64h-.24a.2.2,0,0,1-.2-.2.2.2,0,0,1,.2-.2h.956a.2.2,0,0,1,.2.2.2.2,0,0,1-.2.2h-.273v2.64c0,.514.188,1.008,1.086,1.008s1.08-.494,1.08-1.008v-2.64h-.273a.2.2,0,0,1-.2-.2.2.2,0,0,1,.2-.2h.956a.2.2,0,0,1,.2.2.2.2,0,0,1-.2.2Z" transform="translate(-2568.512 -1120.04)" fill="#fff"/>
      <path id="Path_24" data-name="Path 24" d="M2687.843,1124.507a.209.209,0,0,1-.2-.1l-1.17-1.788h-.657v1.489h.241a.2.2,0,0,1,.2.2.2.2,0,0,1-.2.2h-.923a.2.2,0,0,1-.2-.2.2.2,0,0,1,.2-.2h.24v-3.57h-.24a.2.2,0,0,1-.2-.2.2.2,0,0,1,.2-.2h1.755a1.214,1.214,0,0,1,1.242,1.242,1.2,1.2,0,0,1-1.164,1.242l.995,1.489h.3a.2.2,0,0,1,.2.2.2.2,0,0,1-.2.2Zm-2.022-3.973v1.677h1.085a.84.84,0,0,0-.019-1.677Z" transform="translate(-2609.625 -1120.04)" fill="#fff"/>
      <path id="Path_25" data-name="Path 25" d="M2731.613,1124.331a.2.2,0,0,1-.2.176H2728.8a.2.2,0,0,1-.2-.2.2.2,0,0,1,.2-.2h.234v-3.57h-.234a.2.2,0,0,1-.2-.2.2.2,0,0,1,.2-.2h2.542a.194.194,0,0,1,.2.2v.494a.194.194,0,0,1-.2.2.2.2,0,0,1-.2-.2v-.292h-1.665v1.567h1.43a.2.2,0,1,1,0,.4h-1.43v1.6h1.736v-.293a.2.2,0,0,1,.2-.2.2.2,0,0,1,.2.2Z" transform="translate(-2647.324 -1120.04)" fill="#fff"/>
    </g>
    <g id="Group_4" data-name="Group 4" transform="translate(2009.638 357.951)">
      <path id="Path_26" data-name="Path 26" d="M2317.541,429.491l16.5,3.194v39.542l-16.5,11.713-16.5-11.713V432.685l16.5-3.194m0-3.233-19.678,3.809v43.8l19.678,13.965,19.678-13.965v-43.8l-19.678-3.809Z" transform="translate(-2297.862 -426.258)" fill="#fff"/>
    </g>
    <path id="Path_27" data-name="Path 27" d="M2337.219,390.512l-19.678-3.809-19.678,3.808v3.233l19.678-3.809,19.678,3.809Z" transform="translate(-288.224 -34.153)" fill="#fff"/>
    <path id="Path_28" data-name="Path 28" d="M2317.541,347.151l-19.678,3.809v3.233l19.678-3.809,19.678,3.809v-3.233Z" transform="translate(-288.224)" fill="#fff"/>
    <path id="Path_29" data-name="Path 29" d="M2362.9,534.4a13.071,13.071,0,0,0-1.242-.807l.162-.065a3.766,3.766,0,0,0,.208-.838,16.746,16.746,0,0,1,.592-4.233,7.1,7.1,0,0,0,.231-2.329,36.881,36.881,0,0,1,.165-4.656c.1-1.755.076-3.519.035-5.278-.014-.6-.292-1.19-.354-1.795a8.134,8.134,0,0,1-.177-2.406.881.881,0,0,0-.152-.657,2.269,2.269,0,0,1-.478-1.2c-.113-.7-.3-1.38-.444-2.071-.128-.608-.631-.88-1.073-1.194a.49.49,0,0,1-.2-.693c.356-.972.679-1.958.955-2.955a1.243,1.243,0,0,0-.157-.825,6.809,6.809,0,0,0-.87-1.285,11.433,11.433,0,0,0-1.143-1c-.14-.121-.325-.216-.41-.368-.22-.394-.391-.816-.593-1.222a.448.448,0,0,0-.639-.271,7.645,7.645,0,0,0-2.382,1.332,3.063,3.063,0,0,0-.359.459c-.83-.038-1.331.573-1.786,1.268a1.287,1.287,0,0,1-.2.226l-11.177,7.254c-.106.063-.222.135-.365.227-.036.024-.059.047-.094.07l-.107.069.005.007c-1.514,1.089-1.159,2.114.058,2.079,1.272-.036.521-1.185.412-1.561a.467.467,0,0,1,.2-.521l11-7.137c.007.009.013.015.021.025a19.484,19.484,0,0,0,.871,1.777,3.256,3.256,0,0,0,.807.657,1.322,1.322,0,0,0-.166.322,4.845,4.845,0,0,0-.286,1.443,4.48,4.48,0,0,0,.693,2.225,1.385,1.385,0,0,1,.306.726,2.782,2.782,0,0,0,1.226,2.326,1.3,1.3,0,0,1,.553,1.134.988.988,0,0,0,.854,1.18c.023.261-.04.63.077.7.542.329.275.732.161,1.106a4.427,4.427,0,0,0,.171,3.611.837.837,0,0,1,.058.45,11.327,11.327,0,0,0-.145,1.62,3.551,3.551,0,0,1-.943,2.718,15.924,15.924,0,0,0-1.4,1.826,10.2,10.2,0,0,1-2.4,2.632c-.415.312-.846.606-1.229.954a1.2,1.2,0,0,1-.844.357c-.188,0-.515.2-.532.336a13.023,13.023,0,0,0-.03,1.629,2.85,2.85,0,0,1,.027.629,4.1,4.1,0,0,0,.742,3.526c.082.108.2.049.283,0a.931.931,0,0,0,.381-.742,9.6,9.6,0,0,1,.81-2.836,1.26,1.26,0,0,1,.238-.328c.719.551.712.543,1.409-.052.8-.684,1.6-1.378,2.433-2.018a8.81,8.81,0,0,0,2.295-2.534c.11-.186.242-.358.364-.537l.154.046c-.182.858-.361,1.716-.548,2.573-.18.827-.4,1.647-.535,2.481a3.794,3.794,0,0,0,.124.994,1.182,1.182,0,0,1-.013.357,1.031,1.031,0,0,0,1.131,1.333,1.457,1.457,0,0,1,.725.2,2.96,2.96,0,0,0,2.348.59c.235-.06.485-.156.546-.4C2363.315,534.786,2363.1,534.567,2362.9,534.4Zm-5.748-30.965-.214.025c-.112-.316-.209-.639-.34-.948-.122-.289-.277-.564-.422-.843-.185-.356-.373-.71-.573-1.089a5.274,5.274,0,0,0,.6,0c.763-.094.749-.095.926.618.073.292.319.57.308.848A8.3,8.3,0,0,1,2357.148,503.434Z" transform="translate(-324.48 -130.432)" fill="#fff"/>
  </g>
</svg>
