<svg width="75" height="38" viewBox="0 0 75 38" fill="none" xmlns="http://www.w3.org/2000/svg">
<g clip-path="url(#clip0)">
<path d="M9.3688 19.0084C14.5431 19.0084 18.7376 14.7532 18.7376 9.50419C18.7376 4.25517 14.5431 0 9.3688 0C4.19456 0 0 4.25517 0 9.50419C0 14.7532 4.19456 19.0084 9.3688 19.0084Z" fill="black"/>
<path d="M28.1227 19.0084C33.297 19.0084 37.4915 14.7532 37.4915 9.50419C37.4915 4.25517 33.297 0 28.1227 0C22.9485 0 18.7539 4.25517 18.7539 9.50419C18.7539 14.7532 22.9485 19.0084 28.1227 19.0084Z" fill="black"/>
<path d="M46.877 19.0084C52.0513 19.0084 56.2458 14.7532 56.2458 9.50419C56.2458 4.25517 52.0513 0 46.877 0C41.7028 0 37.5082 4.25517 37.5082 9.50419C37.5082 14.7532 41.7028 19.0084 46.877 19.0084Z" fill="black"/>
<path d="M65.6315 19.0084C70.8057 19.0084 75.0003 14.7532 75.0003 9.50419C75.0003 4.25517 70.8057 0 65.6315 0C60.4572 0 56.2627 4.25517 56.2627 9.50419C56.2627 14.7532 60.4572 19.0084 65.6315 19.0084Z" fill="black"/>
<path d="M74.9999 18.9917H0.0163879V37.9833H74.9999V18.9917Z" fill="black"/>
<path d="M5.13889 9.47074C5.13889 7.10727 6.89037 5.21313 9.36889 5.21313C10.856 5.21313 12.1779 6.00096 12.8553 7.20784L11.9135 7.761C11.4509 6.85583 10.4594 6.26916 9.35237 6.26916C7.45217 6.26916 6.17986 7.66042 6.17986 9.47074C6.17986 11.2643 7.45217 12.6556 9.35237 12.6556C10.4594 12.6556 11.4509 12.0689 11.9135 11.1805L12.8553 11.7169C12.1779 12.9238 10.8725 13.7284 9.36889 13.7284C6.89037 13.7284 5.13889 11.8342 5.13889 9.47074Z" fill="white"/>
<path d="M23.8105 9.47074C23.8105 7.10727 25.6446 5.21313 27.9909 5.21313C30.3373 5.21313 32.1879 7.10727 32.1879 9.47074C32.1879 11.8342 30.3373 13.7284 27.9909 13.7284C25.6446 13.7284 23.8105 11.8342 23.8105 9.47074ZM31.1139 9.47074C31.1139 7.66042 29.7589 6.26916 27.9909 6.26916C26.2229 6.26916 24.868 7.66042 24.868 9.47074C24.868 11.2643 26.2229 12.6556 27.9909 12.6556C29.7589 12.6556 31.1139 11.2643 31.1139 9.47074Z" fill="white"/>
<path d="M47.5218 5.36401V13.5775H46.4478V5.36401H47.5218Z" fill="white"/>
<path d="M68.7708 5.36401V13.5775H67.9116L63.7477 7.44253V13.5775H62.6736V5.36401H63.5329L67.6968 11.4822V5.36401H68.7708Z" fill="white"/>
<path d="M13.384 28.6971C13.384 30.9767 11.7812 32.8038 9.55051 32.8038H6.39453V24.5903H9.55051C11.7812 24.5903 13.384 26.4174 13.384 28.6971ZM12.3595 28.6971C12.3595 26.9538 11.2194 25.6296 9.55051 25.6296H7.46856V31.7813H9.55051C11.2194 31.7646 12.3595 30.4404 12.3595 28.6971Z" fill="white"/>
<path d="M30.1716 31.7646V32.8038H25.3303V24.5903H30.1055V25.6296H26.4043V28.1607H29.8246V29.1832H26.4043V31.7813H30.1716V31.7646Z" fill="white"/>
<path d="M42.5479 28.6971C42.5479 26.3336 44.2993 24.4395 46.7779 24.4395C48.265 24.4395 49.5869 25.2273 50.2643 26.4342L49.3225 26.9873C48.8598 26.0822 47.8684 25.4955 46.7613 25.4955C44.8611 25.4955 43.5888 26.8867 43.5888 28.6971C43.5888 30.4906 44.8611 31.8819 46.7613 31.8819C47.8684 31.8819 48.8598 31.2952 49.3225 30.4068L50.2643 30.9432C49.5869 32.1501 48.2815 32.9547 46.7779 32.9547C44.2993 32.9547 42.5479 31.0605 42.5479 28.6971Z" fill="white"/>
<path d="M67.1677 32.8038L63.6813 28.8647V32.8038H62.6072V24.5903H63.6813V28.2948L67.052 24.5903H68.3739L64.8049 28.5797L68.4896 32.8038H67.1677Z" fill="white"/>
</g>
<defs>
<clipPath id="clip0">
<rect width="75" height="38" fill="white"/>
</clipPath>
</defs>
</svg>
