<svg width="164" height="74" viewBox="0 0 164 74" fill="none" xmlns="http://www.w3.org/2000/svg">
<g id="logo">
<g id="Group 47189">
<path id="52AFBC24-BB54-4D19-B5B3-009F38447EDC" fill-rule="evenodd" clip-rule="evenodd" d="M36.653 7.59002C33.683 4.62001 28.8229 3 23.9629 3C20.7229 3 17.4829 3.81 14.5129 4.35001C11.5428 4.89001 8.84284 5.16001 6.14282 5.70001V54.3003L11.2728 53.4903C12.3529 53.2203 13.1629 52.4103 13.1629 51.3302V36.7502C17.4829 37.5602 22.3429 38.3702 23.6929 38.3702C28.5529 38.3702 33.413 36.7502 36.653 33.5102C39.893 30.2701 41.243 25.4101 41.513 20.5501C41.513 15.9601 39.893 10.83 36.653 7.59002Z" fill="#2A4BAE"/>
<path id="280726A2-D2E4-4521-A04C-8DEB48F04BEB" fill-rule="evenodd" clip-rule="evenodd" d="M31.7934 28.6506C29.9034 30.5406 26.6634 31.3506 23.9634 31.3506C20.4534 31.3506 16.9434 30.2706 13.4333 29.7306V11.6405C13.9734 11.6405 20.4534 10.0205 23.9634 10.0205C26.9334 10.0205 29.9034 10.8305 31.7934 12.7205C33.6835 14.6105 34.4935 17.8505 34.4935 20.8206C34.4935 23.5206 33.6835 26.7606 31.7934 28.6506Z" fill="white"/>
<path id="95D4915A-4440-4976-A203-4EACFD32A48E" fill-rule="evenodd" clip-rule="evenodd" d="M109.554 20.5502C106.314 20.0102 103.074 19.2002 100.104 19.2002C95.244 19.2002 90.384 20.8202 87.144 23.7902C83.9039 27.0302 82.2839 31.8903 82.2839 36.7503C82.2839 41.6103 83.9039 46.4703 87.144 49.7104C90.384 52.9504 95.244 54.5704 100.104 54.5704C101.454 54.5704 106.314 53.7604 110.634 52.9504C110.634 54.5704 110.634 56.1904 110.634 57.8104C110.634 59.7004 109.824 61.3204 108.474 62.4004C106.314 64.0204 103.344 63.7504 100.914 63.2104C98.214 62.9404 95.784 62.1304 93.354 61.3204C92.544 61.0504 91.734 61.3204 90.924 61.8604L87.414 65.3704C91.194 67.8004 95.784 69.4204 100.104 70.2305C104.424 71.0405 108.744 70.7705 112.254 68.0704C112.794 67.5304 113.604 66.9904 114.144 66.4504C116.574 63.7504 117.384 60.5104 117.384 57.2704C117.384 55.3804 117.384 53.7604 117.384 51.8704V21.9002C114.954 21.3602 112.254 21.0902 109.554 20.5502H109.554Z" fill="#2A4BAE"/>
<path id="993F96AF-A012-4DFF-895C-3AB7A3D62C62" fill-rule="evenodd" clip-rule="evenodd" d="M110.635 45.6603C110.635 45.9303 110.635 45.9303 110.635 45.6603C107.125 46.4703 103.615 47.2803 100.105 47.2803C97.1345 47.2803 94.1645 46.4703 92.2745 44.5803C90.3845 42.6903 89.5745 39.7203 89.5745 36.7503C89.5745 33.7802 90.3845 30.8102 92.2745 28.6502C94.1645 26.7602 97.1345 25.9502 100.105 25.9502C103.615 25.9502 110.365 27.5702 110.905 27.5702V45.6603H110.635Z" fill="white"/>
<path id="71C59BEA-7224-42C1-AB35-A2D4DA8FD267" fill-rule="evenodd" clip-rule="evenodd" d="M152.483 23.7897C149.243 20.5497 144.383 19.1997 139.523 18.9297C134.663 18.9297 129.803 20.5497 126.563 23.7897C123.323 27.0297 121.973 31.8898 121.703 36.7498C121.703 41.6098 123.323 46.4698 126.563 49.7098C129.803 52.9499 134.663 54.2999 139.523 54.5699C144.383 54.5699 149.243 52.9499 152.483 49.7098C155.723 46.4698 157.343 41.6098 157.343 36.7498V36.4798C157.343 31.8898 155.723 27.0297 152.483 23.7897Z" fill="#2A4BAE"/>
<path id="609E0FC7-E1E3-4CE9-8D9C-6D015B1762AC" fill-rule="evenodd" clip-rule="evenodd" d="M147.623 44.8503C145.733 46.7403 142.493 47.5503 139.793 47.5503C136.822 47.5503 133.852 46.7403 131.962 44.8503C130.072 42.9603 129.262 39.7203 129.262 36.7503C129.262 33.7803 130.072 30.8102 131.962 28.9202C133.852 27.0302 137.092 26.2202 140.063 26.2202C143.033 26.2202 146.003 27.0302 147.893 28.9202C149.783 30.8102 150.593 34.0503 150.593 37.0203C150.323 39.7203 149.513 42.9603 147.623 44.8503Z" fill="white"/>
<path id="0DD55668-193D-4249-9130-F4AA9CDE9E2D" fill-rule="evenodd" clip-rule="evenodd" d="M73.3732 23.7897C70.1332 20.5497 65.2731 19.1997 60.4131 18.9297C55.5531 18.9297 50.6931 20.5497 47.453 23.7897C44.213 27.0297 42.593 31.8898 42.593 36.7498C42.593 41.6098 44.213 46.4698 47.453 49.7098C50.6931 52.9499 55.5531 54.2999 60.4131 54.5699C64.1931 54.5699 68.2431 53.7599 71.2132 51.5999C71.4832 53.2199 72.8332 54.5699 74.7232 54.5699C75.8032 54.5699 78.2332 54.5699 78.2332 54.5699C78.2332 54.5699 78.2332 37.5598 78.2332 36.4798V36.2098C77.9632 31.6198 76.3432 27.0297 73.3732 23.7897Z" fill="#2A4BAE"/>
<path id="ACE5D2CA-CBD0-4FF6-A8EC-6CDB367493C6" fill-rule="evenodd" clip-rule="evenodd" d="M68.2434 44.8503C66.3534 46.7403 63.1134 47.5503 60.1433 47.5503C57.1733 47.5503 54.2033 46.7403 52.3133 44.8503C50.4233 42.9603 49.6133 39.7203 49.6133 36.7503C49.6133 33.7803 50.4233 30.8102 52.3133 28.9202C54.2033 27.0302 57.4433 26.2202 60.4133 26.2202C63.3834 26.2202 66.3534 27.0302 68.2434 28.9202C70.1334 30.8102 70.9434 34.0503 70.9434 37.0203C70.9434 39.7203 70.4034 42.9603 68.2434 44.8503Z" fill="white"/>
</g>
</g>
</svg>
